<?xml version="1.0" encoding="UTF-8"?>
<svg version="1.1" xmlns="http://www.w3.org/2000/svg" width="500" height="500">
<path d="M0 0 C165 0 330 0 500 0 C500 165 500 330 500 500 C335 500 170 500 0 500 C0 335 0 170 0 0 Z " fill="#FEFEFE" transform="translate(0,0)"/>
<path d="M0 0 C5.65933626 0.43366561 9.35125239 2.06742148 14.0625 5.25 C15.44986315 6.15405628 16.83931407 7.05491405 18.23046875 7.953125 C18.98247559 8.43974609 19.73448242 8.92636719 20.50927734 9.42773438 C26.18257135 13.00899427 32.01339414 16.33625907 37.81274414 19.70800781 C38.71758545 20.23749023 39.62242676 20.76697266 40.5546875 21.3125 C41.76874268 22.01826172 41.76874268 22.01826172 43.00732422 22.73828125 C45 24 45 24 47 26 C47.73202614 31.58169935 47.73202614 31.58169935 47 34 C42.83895855 37.79612769 38.4443903 40.71253501 33.58984375 43.5390625 C32.89991837 43.9465976 32.20999298 44.35413269 31.49916077 44.77401733 C29.31488313 46.06275427 27.12633131 47.34401564 24.9375 48.625 C23.46520047 49.49168771 21.99319253 50.35887097 20.52148438 51.2265625 C17.81942916 52.819012 15.1155977 54.40835652 12.40991211 55.99462891 C10.31637079 57.22584165 8.23524829 58.4788626 6.17675781 59.76782227 C4 61 4 61 1.89453125 60.98828125 C-0.8062366 59.57942709 -1.7749023 57.79340379 -3.3125 55.1875 C-3.84488281 54.31480469 -4.37726563 53.44210937 -4.92578125 52.54296875 C-6 50 -6 50 -5.84936523 48.01855469 C-4.664213 45.20198708 -3.15842031 44.58793283 -0.484375 43.16015625 C0.89814453 42.4012207 0.89814453 42.4012207 2.30859375 41.62695312 C3.27925781 41.11068359 4.24992187 40.59441406 5.25 40.0625 C13.87310757 35.51143876 13.87310757 35.51143876 21 29 C20.2790918 28.72978027 19.55818359 28.45956055 18.81542969 28.18115234 C14.00887391 26.16466632 9.68624334 23.34302224 5.25 20.625 C4.27933594 20.0475 3.30867188 19.47 2.30859375 18.875 C1.38691406 18.31039062 0.46523438 17.74578125 -0.484375 17.1640625 C-1.32709961 16.65311035 -2.16982422 16.1421582 -3.03808594 15.61572266 C-5 14 -5 14 -5.8581543 11.96337891 C-6.07691712 8.93533995 -4.67895111 7.25714867 -3.0625 4.75 C-2.49660156 3.85796875 -1.93070312 2.9659375 -1.34765625 2.046875 C-0.90292969 1.37140625 -0.45820313 0.6959375 0 0 Z " fill="#3BBEF8" transform="translate(269,217)"/>
<path d="M0 0 C1.65234375 1.70703125 1.65234375 1.70703125 2.9375 3.8125 C3.37964844 4.49957031 3.82179687 5.18664062 4.27734375 5.89453125 C5 8 5 8 4.33081055 9.94970703 C2.67670351 12.49808181 1.07458906 13.43112318 -1.5703125 14.91015625 C-2.91416016 15.68262695 -2.91416016 15.68262695 -4.28515625 16.47070312 C-6.18599628 17.5361671 -8.08703962 18.60126844 -9.98828125 19.66601562 C-10.88160156 20.17970703 -11.77492187 20.69339844 -12.6953125 21.22265625 C-13.52047363 21.68422119 -14.34563477 22.14578613 -15.19580078 22.62133789 C-15.79118652 23.07629639 -16.38657227 23.53125488 -17 24 C-17 24.99 -17 25.98 -17 27 C-16.36908447 27.34256836 -15.73816895 27.68513672 -15.08813477 28.03808594 C-12.23861339 29.59518995 -9.40063251 31.17224049 -6.5625 32.75 C-5.56927734 33.28882813 -4.57605469 33.82765625 -3.55273438 34.3828125 C-2.60849609 34.91132813 -1.66425781 35.43984375 -0.69140625 35.984375 C0.18314209 36.46616211 1.05769043 36.94794922 1.95874023 37.44433594 C4 39 4 39 4.86914062 41.04101562 C5.06568978 43.98338584 3.75651646 45.39912002 2.0625 47.75 C1.49660156 48.54921875 0.93070313 49.3484375 0.34765625 50.171875 C-0.09707031 50.77515625 -0.54179687 51.3784375 -1 52 C-5.49320305 51.42169797 -8.56522349 49.68292817 -12.40234375 47.32421875 C-13.00252823 46.95778763 -13.60271271 46.59135651 -14.22108459 46.21382141 C-16.13090561 45.04530464 -18.03411973 43.86647202 -19.9375 42.6875 C-21.21248812 41.90624378 -22.48787522 41.12563829 -23.76367188 40.34570312 C-38.98987567 31.01012433 -38.98987567 31.01012433 -42 28 C-42.30693893 24.86922289 -42.38842227 23.72083451 -41 21 C-38.91821289 19.37768555 -38.91821289 19.37768555 -36.22265625 17.76171875 C-35.2287085 17.15674561 -34.23476074 16.55177246 -33.21069336 15.9284668 C-32.15116455 15.29207275 -31.09163574 14.65567871 -30 14 C-27.8764881 12.66844488 -25.75410438 11.33508899 -23.6328125 10 C-21.46452579 8.66506686 -19.29524761 7.33174285 -17.125 6 C-16.02414063 5.30777344 -14.92328125 4.61554688 -13.7890625 3.90234375 C-12.726875 3.25394531 -11.6646875 2.60554687 -10.5703125 1.9375 C-9.61914551 1.34839844 -8.66797852 0.75929687 -7.68798828 0.15234375 C-4.56137636 -1.18803847 -3.17560359 -1.11285361 0 0 Z " fill="#3BBEF8" transform="translate(167,218)"/>
<path d="M0 0 C3.00155373 -0.13615919 5.996821 -0.2346398 9 -0.3125 C9.83917969 -0.35439453 10.67835938 -0.39628906 11.54296875 -0.43945312 C17.84901228 -0.56166327 22.19828881 0.80002032 27 5 C29.93628326 10.38318597 29.82196134 16.73676426 28.34765625 22.58984375 C26.28731525 28.47021612 23.53849577 32.91262759 18 36 C12.26014323 38.11999735 7.08406584 38.24405758 1.0625 38.125 C0.18787109 38.11597656 -0.68675781 38.10695313 -1.58789062 38.09765625 C-3.72538064 38.0742957 -5.86272786 38.03843247 -8 38 C-5.91630311 25.14774415 -3.71074108 12.49414417 0 0 Z " fill="#3CBEF8" transform="translate(182,221)"/>
<path d="M0 0 C0.66 0 1.32 0 2 0 C1.44824139 4.67327821 0.53691949 8.77226533 -1.1171875 13.17382812 C-1.55353516 14.34747925 -1.98988281 15.52113037 -2.43945312 16.73034668 C-2.672854 17.34828598 -2.90625488 17.96622528 -3.14672852 18.60289001 C-4.15018951 21.25991294 -5.13800248 23.92267744 -6.12713623 26.58506012 C-6.64426986 27.97634785 -7.16222351 29.36733104 -7.68096924 30.75801849 C-10.34087066 37.89241556 -12.92478685 45.0534439 -15.5 52.21875 C-15.95742304 53.48929255 -16.41494297 54.75980023 -16.87255859 56.03027344 C-18.24932915 59.85317164 -19.62479001 63.67654019 -21 67.5 C-21.91653709 70.04822372 -22.83318922 72.59640599 -23.75 75.14453125 C-23.97723755 75.77617187 -24.2044751 76.4078125 -24.43859863 77.05859375 C-26.2531955 82.10046353 -28.07649877 87.13916224 -29.90124512 92.17736816 C-31.37222138 96.2450439 -32.82461679 100.3189691 -34.26745605 104.39670563 C-35.26356177 107.20595417 -36.26897965 110.01181565 -37.27612305 112.81712341 C-37.75572141 114.15984718 -38.23120154 115.50404959 -38.70239258 116.8497467 C-39.35344964 118.70763237 -40.02009038 120.56003518 -40.6875 122.41210938 C-41.06261719 123.46958374 -41.43773437 124.52705811 -41.82421875 125.61657715 C-42.21222656 126.40310669 -42.60023438 127.18963623 -43 128 C-43.99 128.33 -44.98 128.66 -46 129 C-45.40751671 123.05763804 -43.71309781 117.92314797 -41.62109375 112.34765625 C-41.12380516 110.99745644 -41.12380516 110.99745644 -40.61647034 109.61997986 C-39.56329146 106.7650419 -38.50055956 103.9137716 -37.4375 101.0625 C-36.71876575 99.11937549 -36.00066004 97.17601837 -35.28320312 95.23242188 C-33.52939879 90.48555809 -31.76702215 85.74195846 -30 81 C-30.99 81.495 -30.99 81.495 -32 82 C-38.35336537 82.71092899 -44.26832908 83.21007772 -49.625 79.3125 C-54.00051913 75.33391615 -56.12853525 72.31390627 -56.4375 66.3125 C-56.21212114 59.43844468 -53.841864 53.19335719 -49.8125 47.625 C-45.29431671 43.40802893 -40.17590858 40.86840996 -33.9375 40.5 C-29.36777779 41.08028219 -25.60474135 42.03350463 -22 45 C-21 48.25 -21 48.25 -21 51 C-22.98 51.66 -24.96 52.32 -27 53 C-27.495 52.34 -27.99 51.68 -28.5 51 C-31.39732386 48.68214091 -33.35622642 48.40888572 -37.0390625 48.62109375 C-40.28549146 49.24839178 -41.81323576 50.56331984 -44 53 C-47.00773147 58.28945879 -47.79226099 63.04081949 -47 69 C-46.31008845 71.75637346 -46.31008845 71.75637346 -44 73 C-40.81567571 73.28345311 -38.04391742 72.97800957 -35 72 C-32.41082032 69.62425779 -32.41082032 69.62425779 -31 67 C-29.35 67.33 -27.7 67.66 -26 68 C-21.26533782 57.22585843 -17.4137812 46.15347947 -13.5 35.0625 C-1.70687036 1.70687036 -1.70687036 1.70687036 0 0 Z " fill="#42C0F8" transform="translate(272,179)"/>
<path d="M0 0 C1.70703125 1.421875 1.70703125 1.421875 3 4 C2.33985834 7.2589072 1.0103751 10.20999977 -0.3125 13.25 C-0.65990234 14.09046875 -1.00730469 14.9309375 -1.36523438 15.796875 C-2.22618466 17.87259076 -3.10469278 19.93892486 -4 22 C-5.98 21.34 -7.96 20.68 -10 20 C-10.226875 20.598125 -10.45375 21.19625 -10.6875 21.8125 C-12.40806668 24.68011113 -13.96531888 25.62059949 -17 27 C-20.0625 27.5 -20.0625 27.5 -23 27 C-25.58791281 24.88880797 -26.76553283 23.25846663 -27.3828125 19.9453125 C-27.74988262 12.87309491 -25.43045409 7.70050455 -20.75 2.5 C-16.77418241 0.33137223 -14.50994759 0.42730824 -10 1 C-8.64691687 2.31328657 -7.31129922 3.64499081 -6 5 C-2.80045046 4.85650653 -2.80045046 4.85650653 0 4 C0 2.68 0 1.36 0 0 Z " fill="#FBFDFE" transform="translate(251,226)"/>
<path d="M0 0 C5.49471751 -0.32321868 9.46054055 -0.5464527 14 3 C15.61253453 4.61253453 15.24791423 6.33599043 15.3125 8.5625 C15.25237152 13.80871015 14.159149 17.77425728 11 22 C8.375 23.9375 8.375 23.9375 6 25 C5.34 25.33 4.68 25.66 4 26 C2.45976004 26.06950541 0.91665012 26.08452357 -0.625 26.0625 C-1.85089844 26.04896484 -1.85089844 26.04896484 -3.1015625 26.03515625 C-3.72804687 26.02355469 -4.35453125 26.01195312 -5 26 C-3.88740222 17.15157531 -2.36328211 8.60234688 0 0 Z " fill="#FBFDFE" transform="translate(188,227)"/>
<path d="M0 0 C0.99 0.33 1.98 0.66 3 1 C2.39606724 7.1262018 0.60402101 12.50381317 -1.4921875 18.2734375 C-1.83879425 19.23778717 -2.185401 20.20213684 -2.54251099 21.19570923 C-3.27368191 23.22240353 -4.00844029 25.24780678 -4.74658203 27.27197266 C-5.87719156 30.38102655 -6.9878652 33.49674474 -8.09765625 36.61328125 C-8.81129934 38.58376858 -9.52610243 40.55383628 -10.2421875 42.5234375 C-10.57354706 43.45876312 -10.90490662 44.39408875 -11.24630737 45.35775757 C-11.56318512 46.21600128 -11.88006287 47.074245 -12.20654297 47.95849609 C-12.48110321 48.71681732 -12.75566345 49.47513855 -13.0385437 50.25643921 C-14 52 -14 52 -17 53 C-16.40751671 47.05763804 -14.71309781 41.92314797 -12.62109375 36.34765625 C-12.12380516 34.99745644 -12.12380516 34.99745644 -11.61647034 33.61997986 C-10.56329146 30.7650419 -9.50055956 27.9137716 -8.4375 25.0625 C-7.71876575 23.11937549 -7.00066004 21.17601837 -6.28320312 19.23242188 C-4.52939879 14.48555809 -2.76702215 9.74195846 -1 5 C-1.99 5.495 -1.99 5.495 -3 6 C-5.16410684 6.12244289 -7.33246523 6.17551142 -9.5 6.1875 C-10.6653125 6.20167969 -11.830625 6.21585937 -13.03125 6.23046875 C-16 6 -16 6 -18 4 C-17.11957031 3.96261719 -16.23914063 3.92523438 -15.33203125 3.88671875 C-13.58986328 3.78810547 -13.58986328 3.78810547 -11.8125 3.6875 C-10.66394531 3.62949219 -9.51539063 3.57148438 -8.33203125 3.51171875 C-4.83028044 2.97393521 -2.968872 1.83054802 0 0 Z " fill="#48C2F8" transform="translate(243,255)"/>
<path d="M0 0 C3.6252545 3.46763474 4.19058178 5.53818592 4.3125 10.5625 C4.23077875 17.38622407 2.95278528 22.60137338 -1.578125 27.81640625 C-8.11977011 33.93078175 -15.36254198 34.2945429 -23.9375 34.125 C-24.81212891 34.11597656 -25.68675781 34.10695313 -26.58789062 34.09765625 C-28.72538064 34.0742957 -30.86272786 34.03843247 -33 34 C-33 33.34 -33 32.68 -33 32 C-31.31583984 31.94392578 -31.31583984 31.94392578 -29.59765625 31.88671875 C-15.80141755 31.72038516 -15.80141755 31.72038516 -4.125 25.3125 C0.79873812 17.63726117 1.96815217 10.92993203 0.5 1.9375 C0.2525 0.9784375 0.2525 0.9784375 0 0 Z " fill="#ACE4FB" transform="translate(209,227)"/>
<path d="M0 0 C1.4370809 -0.05422947 2.87475462 -0.09289723 4.3125 -0.125 C5.11300781 -0.14820313 5.91351563 -0.17140625 6.73828125 -0.1953125 C9 0 9 0 12 2 C8.7 2 5.4 2 2 2 C1.8453125 4.0728125 1.8453125 4.0728125 1.6875 6.1875 C1.06215838 12.59725164 -0.44519896 18.76123858 -2 25 C-0.02 25 1.96 25 4 25 C4 25.33 4 25.66 4 26 C1.03 26 -1.94 26 -5 26 C-3.88740222 17.15157531 -2.36328211 8.60234688 0 0 Z " fill="#A8E2FB" transform="translate(188,227)"/>
<path d="M0 0 C0.66 0.66 1.32 1.32 2 2 C0.07942708 2.13020833 -1.84114583 2.26041667 -3.76171875 2.390625 C-7.03741069 3.28243642 -8.64012366 4.54697064 -11 7 C-12.13152739 9.6824045 -12.73169207 12.40378973 -13.3125 15.25 C-13.56483398 16.36761719 -13.56483398 16.36761719 -13.82226562 17.5078125 C-14.23215408 19.33474389 -14.61846714 21.16693711 -15 23 C-17.35020498 20.64979502 -17.31914802 20.08090378 -17.375 16.875 C-17.22249909 10.56146252 -14.92433639 6.13815154 -10.75 1.5 C-6.86049281 -0.62154937 -4.39992815 -0.43277982 0 0 Z " fill="#AAE3FB" transform="translate(241,227)"/>
<path d="M0 0 C1.56316524 4.79205331 -0.08870439 8.11893708 -1.75 12.6875 C-2.01554688 13.47189453 -2.28109375 14.25628906 -2.5546875 15.06445312 C-2.82023438 15.81017578 -3.08578125 16.55589844 -3.359375 17.32421875 C-3.60139648 18.00572998 -3.84341797 18.68724121 -4.09277344 19.3894043 C-5 21 -5 21 -8 22 C-7.41804264 16.91277721 -6.30448482 12.47361058 -4.5625 7.625 C-4.13066406 6.40039062 -3.69882813 5.17578125 -3.25390625 3.9140625 C-2 1 -2 1 0 0 Z " fill="#47C2F8" transform="translate(234,286)"/>
<path d="M0 0 C0.33 0.66 0.66 1.32 1 2 C0.67 2.99 0.34 3.98 0 5 C-3.3653636 6.12178787 -6.0203755 6.16771159 -9.5625 6.1875 C-10.71878906 6.20167969 -11.87507812 6.21585937 -13.06640625 6.23046875 C-16 6 -16 6 -18 4 C-17.11957031 3.96261719 -16.23914063 3.92523438 -15.33203125 3.88671875 C-13.58986328 3.78810547 -13.58986328 3.78810547 -11.8125 3.6875 C-10.66394531 3.62949219 -9.51539063 3.57148438 -8.33203125 3.51171875 C-4.85319896 2.97745494 -2.85468362 2.0052674 0 0 Z " fill="#9FDFFB" transform="translate(243,255)"/>
<path d="M0 0 C1.4370809 -0.05422947 2.87475462 -0.09289723 4.3125 -0.125 C5.11300781 -0.14820313 5.91351563 -0.17140625 6.73828125 -0.1953125 C9 0 9 0 12 2 C8.7 2 5.4 2 2 2 C2 2.99 2 3.98 2 5 C1.01 5.33 0.02 5.66 -1 6 C-0.67 4.02 -0.34 2.04 0 0 Z " fill="#9FDFFB" transform="translate(188,227)"/>
<path d="M0 0 C0.66 0 1.32 0 2 0 C1.34 3.96 0.68 7.92 0 12 C-2.79921583 7.80117625 -1.86558093 5.87872887 -1 1 C-0.67 0.67 -0.34 0.34 0 0 Z " fill="#B7E7FC" transform="translate(188,232)"/>
<path d="M0 0 C0.99 1.32 1.98 2.64 3 4 C1 7 1 7 -1.625 7.6875 C-2.800625 7.8421875 -2.800625 7.8421875 -4 8 C-4 7.01 -4 6.02 -4 5 C-2.68 4.67 -1.36 4.34 0 4 C0 2.68 0 1.36 0 0 Z " fill="#A7E2FB" transform="translate(251,226)"/>
</svg>
